<?xml version="1.0" encoding="UTF-8"?>
<svg width="131px" height="72px" viewBox="0 0 131 72" version="1.1" xmlns="http://www.w3.org/2000/svg" xmlns:xlink="http://www.w3.org/1999/xlink">
    <!-- Generator: Sketch 50.2 (55047) - http://www.bohemiancoding.com/sketch -->
    <title>icon /📱 logo</title>
    <desc>Created with Sketch.</desc>
    <defs></defs>
    <g id="icon-/📱-logo" stroke="none" stroke-width="1" fill="none" fill-rule="evenodd">
        <g id="Group">
            <path d="M19.9632819,51.4010149 C23.3767574,46.9075394 24.2958704,41.6065586 23.378139,38.0315821 C20.5159471,42.0271983 19.1200068,46.3780554 19.9632819,51.4010149 L19.9632819,51.4010149 Z M-6.14072495e-05,66.9356674 C0.169422601,66.8302004 0.138718977,66.6317015 0.198744563,66.479258 C0.432552665,65.8846823 0.797618763,65.4631215 1.39388316,65.162533 C5.62330746,63.0307804 9.80253134,60.8086055 13.5961177,57.9401194 C14.9902158,56.8859104 16.3000324,55.7351386 17.4987019,54.4592495 C17.7031881,54.2415608 17.791768,54.0450576 17.7128597,53.7460043 C16.1116657,47.682806 17.554429,42.1888529 20.8624375,37.0535181 C21.3084077,36.3613049 21.7990516,35.6951898 22.3090388,35.0485714 C22.5436145,34.7513603 22.5787701,34.5152495 22.4192648,34.1739787 C20.9625313,31.0575608 18.7696785,28.6195394 15.784058,26.8989083 C13.7694397,25.7380043 11.6085186,24.8964179 9.47338849,23.9980299 C9.3676145,23.9533561 9.25861663,23.9162047 9.15299616,23.8712239 C7.27485544,23.0717015 6.84561876,22.2351812 7.3008,20.2626269 C7.62564435,18.853791 8.46538849,18.3118721 9.8826678,18.6015608 C10.5438704,18.7366567 11.1670004,18.9810576 11.7674098,19.2845629 C17.5320154,22.1966482 21.6384716,26.7067036 24.4962115,32.4710021 C24.8193672,32.3004435 25.0388981,31.9791301 25.313542,31.7253646 C28.4357936,28.8416802 32.0293458,26.6356247 35.6915207,24.5350362 C38.2170473,23.0862857 40.7732776,21.690806 43.31738,20.2742942 C43.8774141,19.9624989 44.4141134,20.221177 44.6927488,20.9258252 C45.0529023,21.8355736 44.4621646,23.1664222 43.4733544,23.6189936 C41.5741817,24.4882132 39.6934311,25.3944307 37.8455335,26.3675821 C34.1544972,28.3114286 30.6040836,30.4671301 27.5288085,33.3225672 C26.9254823,33.8827548 26.3706678,34.4951386 25.7814652,35.0709851 C25.59709,35.2513689 25.5246294,35.4314456 25.589107,35.6844435 C27.2933117,42.3677015 25.4401945,48.2598806 21.4834183,53.6296375 C20.8446294,54.4962473 20.883009,55.1014158 21.3392648,55.9595821 C23.2743608,59.5991898 26.2133117,62.1118209 29.9201603,63.8026695 C31.5750857,64.5576716 33.2640921,65.229467 34.9488,65.9126226 C35.499316,66.1356844 36.0475292,66.3664222 36.5148384,66.7488358 C37.0088597,67.1532026 37.2775164,67.665339 37.2009109,68.3070448 C37.1072648,69.0918294 36.9061561,69.8583454 36.4750772,70.5266098 C35.7931497,71.5837356 34.5788213,71.9294584 33.2091326,71.4859446 C31.6512307,70.981484 30.323913,70.0640597 29.0632222,69.0595906 C25.5789748,66.2841365 22.4031454,63.2159232 20.1109663,59.3411258 C19.7115122,58.6659531 19.3533544,57.9649893 19.0070175,57.2604947 C18.8568768,56.9551471 18.7973117,56.8556674 18.4713928,57.1343028 C13.8656955,61.0705075 8.89953774,64.4918124 3.61482985,67.4516418 C2.89651855,67.8540128 2.14259104,68.1831557 1.35657825,68.4412196 C0.813124094,68.6199147 0.355333049,68.5775437 -6.14072495e-05,68.0872068 L-6.14072495e-05,66.9356674 Z" id="Fill-1" fill="#1466A9"></path>
            <path d="M19.4413356,13.6430482 C19.4467087,14.8578371 19.6705382,16.0184341 20.0739838,17.1461783 C21.7748111,21.9020162 26.9838345,23.9748179 31.4423079,21.6718925 C36.2397493,19.193803 38.3038004,12.8946473 35.9021629,8.06128273 C33.8975232,4.02667292 29.3257535,2.36760256 25.2807045,4.31482644 C21.4034507,6.1814533 19.7098388,9.48792665 19.4413356,13.6430482 M39.9660947,13.3053083 C39.7491736,17.4461527 37.7287215,21.6600716 33.1979412,24.3472529 C27.0564486,27.9900844 19.7703249,25.4277134 17.2936171,18.7257262 C15.353762,13.476174 16.4188708,8.63897143 19.9999881,4.39680512 C22.1265211,1.87787974 24.8964486,0.371713433 28.2119795,0.17643838 C32.3839881,-0.0690371002 35.657762,1.65988401 37.9565424,5.14198209 C39.3767386,7.29369211 39.9991011,9.70331258 39.9660947,13.3053083" id="Fill-4" fill="#F5BD3E"></path>
            <path d="M121.502994,54.9232273 C121.524486,54.0956111 121.360989,53.3762252 120.969058,52.7168648 C120.068674,51.202255 118.089979,51.1179736 117.124503,52.5862209 C116.3629,53.7445151 116.239318,55.0170269 116.742857,56.3144085 C117.115599,57.2740503 117.772196,57.9343318 118.870465,57.9624256 C119.995292,57.99098 120.74139,57.3994746 121.215301,56.4220247 C121.453868,55.9299991 121.546439,55.4058883 121.502994,54.9232273 M121.56609,51.6572827 C121.615829,51.5298627 121.639011,51.4965493 121.64116,51.4617006 C121.712853,50.3729501 121.711625,50.384464 122.815574,50.4641399 C123.077475,50.4830226 123.132128,50.5791249 123.13136,50.8104768 C123.122456,53.6692913 123.17849,56.5297945 123.096665,59.3864597 C123.028964,61.7437305 121.56087,63.0299053 119.079249,63.1232443 C117.99449,63.1642337 116.944426,63.0091804 115.90649,62.6904768 C115.516861,62.5705791 115.415846,62.4176751 115.476179,62.0091633 C115.614038,61.0771548 115.586098,61.0734704 116.481109,61.4078328 C117.316094,61.7197817 118.176256,61.8957134 119.068043,61.7979224 C120.391983,61.6526942 121.151744,60.9698456 121.434064,59.6681655 C121.546439,59.1492742 121.560563,58.6156452 121.506371,58.0979821 C121.358072,58.0284384 121.302806,58.1282252 121.240631,58.1876367 C120.087403,59.2906644 118.716026,59.5355258 117.247164,59.0683701 C115.79826,58.6076623 115.108657,57.4406175 114.844913,56.0241058 C114.580401,54.6043701 114.777058,53.2313041 115.548026,51.9839693 C116.541748,50.3767881 118.631744,49.7637902 120.348998,50.5430482 C120.852537,50.7714832 121.223898,51.1413083 121.56609,51.6572827" id="Fill-7" fill="#687281"></path>
            <path d="M56.9639898,53.2903011 C56.9639898,55.1325186 56.9543181,56.9748896 56.9719727,58.8168 C56.9756571,59.1901561 56.8777126,59.3074439 56.4923821,59.307751 C55.2370644,59.3086721 55.2370644,59.325252 55.2370644,58.0535079 C55.2369109,56.7869834 55.2238618,55.5203053 55.2448938,54.2540878 C55.2511881,53.8788896 55.1401945,53.7591454 54.7616188,53.7631369 C53.149832,53.780638 51.5375846,53.7847829 49.9261049,53.7609876 C49.4961006,53.7546934 49.4270175,53.924638 49.4314695,54.2995292 C49.4489706,55.7963309 49.4254823,57.2934397 49.4475889,58.7897808 C49.4532691,59.1841689 49.3570132,59.3126635 48.9434354,59.3086721 C47.6738405,59.2957765 47.6735335,59.3145058 47.6735335,58.0676316 C47.6735335,54.6136273 47.6812094,51.159316 47.6638618,47.7053117 C47.6617126,47.2849791 47.7509066,47.1468128 48.1961092,47.1546422 C49.4382243,47.1769023 49.4385313,47.1544887 49.4385313,48.4237765 C49.4385313,49.5177467 49.4518874,50.6118704 49.4314695,51.7052264 C49.4242542,52.0816529 49.4982499,52.2491412 49.9268725,52.2430004 C51.5385058,52.2192051 53.1507531,52.2231966 54.7625399,52.2408512 C55.1423437,52.2451497 55.2504205,52.1229493 55.2448938,51.7489791 C55.2246294,50.3868128 55.2530303,49.0238789 55.2272392,47.6618661 C55.2194098,47.2489023 55.3509748,47.1528 55.7450559,47.157252 C56.9638362,47.1701475 56.9639898,47.1535676 56.9639898,48.3969109 L56.9639898,53.2903011 Z" id="Fill-9" fill="#1466A9"></path>
            <path d="M76.6903932,40.5697433 C76.6552375,41.2542806 76.8056853,41.9216239 77.1154849,42.5499736 C77.5132503,43.3571719 78.1053697,43.9087625 79.0584102,43.9492913 C80.0168239,43.98982 80.7383591,43.5608904 81.194922,42.7493936 C81.9912205,41.3342635 81.9743335,39.8819821 81.1656,38.4838925 C80.6757237,37.636933 79.8792716,37.2420844 78.8855488,37.3351164 C77.9480136,37.4229288 77.3595787,37.9728307 77.0044913,38.8128819 C76.7696085,39.3689245 76.668133,39.9479949 76.6903932,40.5697433 M81.7632461,37.2643446 C81.7632461,35.6949288 81.7775232,34.125206 81.7535744,32.5562507 C81.7474337,32.1526516 81.8553569,32.0402763 82.2609518,32.0471846 C83.3681245,32.0662209 83.3684316,32.04611 83.3684316,33.1548179 C83.3684316,36.9347412 83.3604486,40.7148179 83.3788708,44.4947412 C83.3811736,44.9447028 83.2686448,45.0808733 82.8122354,45.0641399 C81.8988026,45.0308264 81.8978814,45.0575386 81.7538814,44.0308094 C81.5739582,43.9732401 81.5369603,44.1453339 81.4523719,44.2283872 C79.8946235,45.7585023 76.5400989,45.8452401 75.4263249,42.9446687 C74.8185467,41.3622038 74.7559113,39.7582465 75.4356896,38.1843787 C76.472551,35.7830482 79.6635787,35.2239352 81.4677237,37.106835 C81.5318942,37.1737689 81.5741117,37.2615812 81.6263079,37.3395684 C81.6719028,37.314545 81.7176512,37.2895215 81.7632461,37.2643446" id="Fill-11" fill="#687281"></path>
            <path d="M81.2908401,54.6959591 C81.3084947,54.1543471 81.1935096,53.5356691 80.9339104,52.950765 C80.5608614,52.1105603 79.9147036,51.6007267 78.9908316,51.5522149 C78.1340469,51.5072341 77.4260213,51.853264 76.9211002,52.5675838 C76.0233262,53.8371787 76.0130405,55.8507224 76.8959232,57.1236947 C77.897322,58.5672256 79.7834456,58.5319164 80.7080853,57.0444793 C81.1340981,56.3593279 81.2979019,55.5980316 81.2908401,54.6959591 M76.2442388,58.1878823 C76.2442388,59.6182107 76.2255096,60.988974 76.2548316,62.3586627 C76.2645032,62.8046328 76.1512068,62.9423386 75.6917271,62.9289825 C74.6092708,62.8973578 74.6085032,62.9223812 74.6085032,61.8555838 C74.6085032,58.2327096 74.6158721,54.6099889 74.5985245,50.9875753 C74.5965288,50.5649399 74.69171,50.3804111 75.1307719,50.4547139 C75.4596077,50.5104409 75.8748742,50.2975113 76.105919,50.5667821 C76.2965885,50.7889228 76.0733731,51.1903727 76.241629,51.5505262 C76.7938337,50.9699207 77.4134328,50.5443684 78.1678209,50.3515497 C80.4053475,49.7801552 82.3432068,50.9825092 82.8688529,53.3086158 C83.2133475,54.8335113 83.081936,56.3367608 82.3100469,57.7121296 C81.1015522,59.8653748 78.1285203,60.1550635 76.4376716,58.3231318 C76.4038977,58.2865945 76.3546183,58.2641808 76.2442388,58.1878823" id="Fill-13" fill="#1466A9"></path>
            <path d="M43.4904563,34.881774 C40.722064,33.8590362 38.6314542,34.2488188 37.2955394,36.029322 C36.0474371,37.6926908 36.0402217,40.2874542 37.2795736,41.9561962 C38.613032,43.7518977 40.8025075,44.2061578 43.4731087,43.2406823 C43.4967505,43.2687761 43.5383539,43.2956418 43.5406567,43.3255778 C43.6792836,45.0988657 43.9740384,44.8844009 42.1176972,45.1868316 C40.8847932,45.3876333 39.658951,45.2941407 38.4853049,44.8857825 C36.2239829,44.0986951 34.9436418,42.4558977 34.6253987,40.1090661 C34.2821322,37.5766311 34.894209,35.3512324 37.1209893,33.8588827 C39.0273774,32.5813049 41.128887,32.4739957 43.2948742,33.1302857 C43.5604606,33.2108827 43.6627036,33.3530405 43.6243241,33.6306013 C43.5670618,34.0447932 43.5340554,34.462209 43.4904563,34.881774" id="Fill-15" fill="#687281"></path>
            <path d="M63.404336,54.0265586 C64.0349885,54.0265586 64.6664085,54.0093646 65.2961399,54.0336205 C65.6317305,54.0463625 65.7104853,53.9485714 65.669803,53.6149765 C65.5205834,52.3874456 64.6326345,51.5300469 63.4771036,51.5374158 C62.3300162,51.5446311 61.3094277,52.501049 61.1640461,53.690968 C61.1342635,53.9344478 61.1873808,54.0371514 61.4551164,54.0311642 C62.1044981,54.0164264 62.7544938,54.0264051 63.404336,54.0265586 M66.7522593,57.3305757 C66.7522593,57.5824989 66.7519522,57.73571 66.7522593,57.8887676 C66.7531804,59.0002388 66.7573254,59.0157441 65.6871505,59.2902345 C64.5922593,59.5708657 63.4803275,59.586371 62.3863574,59.306661 C61.1149203,58.9815096 60.1988776,58.1985672 59.7611974,56.9509254 C59.2298712,55.4360085 59.1785962,53.9014414 59.888771,52.4235224 C60.8682166,50.3851087 63.594852,49.574226 65.5626473,50.7016631 C66.7465791,51.3799062 67.7631761,53.7350277 67.4409416,55.0307207 C67.3674064,55.3263966 67.1437305,55.2215437 66.9780844,55.2223113 C65.2709629,55.2302942 63.5636878,55.2269168 61.8564128,55.2272239 C61.053513,55.2273774 61.0120631,55.2858678 61.2489416,56.0817058 C61.6758755,57.5154115 63.0626047,58.378951 64.5468179,58.1385416 C65.3070397,58.01542 66.0136836,57.7389339 66.7522593,57.3305757" id="Fill-17" fill="#1466A9"></path>
            <path d="M70.1460844,40.7892128 C69.5353893,40.8108588 68.732336,40.8513876 67.9975983,41.2279676 C67.3715514,41.5488205 67.0688136,42.0669441 67.1335983,42.6516947 C67.1974618,43.2275412 67.6901015,43.742748 68.3281228,43.9011787 C69.765513,44.2581083 71.0983574,43.3299377 71.2641569,41.8564708 C71.3819053,40.81178 71.3802166,40.8100913 70.1460844,40.7892128 M66.5336495,38.1316606 C66.3696921,36.576829 66.2634576,36.8470209 67.5622209,36.3242917 C68.4883957,35.9512426 69.4721399,35.9357373 70.4465194,36.1164281 C71.7787497,36.3634388 72.5385109,37.1889058 72.7815301,38.5407864 C72.9223062,39.3232682 72.8676537,40.1080529 72.8767113,40.8922235 C72.8912955,42.1573663 72.8803957,43.4228162 72.9066473,44.6878055 C72.912481,44.9583045 72.8750226,45.0484196 72.5839522,45.0608546 C71.5599864,45.1047608 71.5606004,45.1175028 71.3685493,44.0008119 C70.7910141,44.6171872 70.1488478,45.0570166 69.3264512,45.2042405 C68.5482678,45.3434814 67.7920375,45.267797 67.0620588,45.0141851 C66.1070226,44.6821254 65.5641825,43.9757885 65.4398328,42.9740827 C65.3153296,41.9720699 65.5908947,41.1102192 66.4326345,40.4924623 C67.3182806,39.84262 68.3433211,39.6404367 69.4142635,39.6187906 C69.892933,39.609119 70.3731377,39.6152597 70.8508861,39.6445817 C71.1493254,39.6626968 71.2618542,39.5721211 71.2550994,39.2637032 C71.2305365,38.1216819 70.5463062,37.3996861 69.4007539,37.3330593 C68.4214618,37.2761041 67.9191505,37.4141168 66.5336495,38.1316606" id="Fill-19" fill="#687281"></path>
            <path d="M90.6684947,40.7922217 C89.7590533,40.7862345 88.8242814,40.972145 88.3276503,41.2626013 C87.8281023,41.5547463 87.5136972,41.9783028 87.541484,42.5693475 C87.5680426,43.1329126 87.8905842,43.5236162 88.3947377,43.7698593 C89.7963582,44.453936 91.5681109,43.4262857 91.6654414,41.8711471 C91.7325288,40.7992836 91.7325288,40.7992836 90.6684947,40.7922217 M86.9855949,38.1355906 C86.9538166,38.0735693 86.9248017,38.041791 86.9221919,38.00771 C86.8127335,36.6410917 86.5701748,36.8907122 87.9351045,36.3352836 C88.8800085,35.9507207 89.8850917,35.927693 90.8782004,36.1205117 C92.3598038,36.4083582 93.195403,37.4369296 93.2578849,39.0774243 C93.3300384,40.9749083 93.2047676,42.8760768 93.3277356,44.7734072 C93.3410917,44.9782004 93.276307,45.059565 93.0796503,45.0520426 C93.022081,45.0497399 92.9645117,45.0514286 92.9069424,45.0529638 C91.8851258,45.0816716 91.8851258,45.0816716 91.7779701,44.0161023 C91.1569893,44.6604179 90.4726055,45.1070021 89.6119829,45.2282814 C88.8537569,45.3349765 88.113339,45.2557612 87.406081,44.9883326 C86.4561109,44.6292537 85.944742,43.9052623 85.8448017,42.9003326 C85.741791,41.8646994 86.0697058,41.0056119 86.953049,40.4110362 C87.8257996,39.8235224 88.8166055,39.6342345 89.8480938,39.6184222 C90.3080341,39.6113603 90.7708913,39.6032239 91.2279147,39.6455949 C91.6103284,39.6810576 91.6887761,39.5252367 91.666209,39.1874968 C91.5719488,37.7887932 90.4953262,37.0810746 88.8706439,37.3617058 C88.1867207,37.4799147 87.5642047,37.7540981 86.9855949,38.1355906" id="Fill-21" fill="#687281"></path>
            <path d="M51.0282883,41.4670107 C50.8829066,41.317791 51.2550345,40.868597 50.8030772,40.8285288 C49.7929279,40.7391812 48.7767915,40.7543795 47.8277424,41.198661 C47.150267,41.5155224 46.7996316,42.0962814 46.900493,42.6891684 C47.011333,43.3408529 47.5690644,43.8367164 48.2968938,43.930823 C49.8773629,44.1350021 51.0063352,43.1455778 51.0282883,41.4670107 M51.1058149,44.0379787 C49.916203,45.3078806 48.5089023,45.5123667 46.9643565,45.0538081 C46.0008768,44.7679574 45.4066081,44.1323923 45.2381987,43.1148742 C45.0645697,42.0658849 45.3022158,41.1696461 46.1745058,40.5112068 C47.0687488,39.8363412 48.1146678,39.6364606 49.2057211,39.618806 C49.6843906,39.6109765 50.1645953,39.6169638 50.6415761,39.6499701 C50.9544461,39.6717697 51.0313586,39.5603156 51.0224546,39.2618763 C50.9885271,38.1193945 50.3082883,37.4063028 49.1622755,37.331693 C48.1281774,37.2646055 47.1964759,37.5526055 46.3527403,38.1373561 C46.3186593,38.0922217 46.2813544,38.0652026 46.2772094,38.0337313 C46.1080324,36.7641365 46.1416529,36.7226866 47.3727147,36.3015864 C48.3031881,35.9833433 49.2531582,35.9409723 50.2060452,36.1152154 C51.6500367,36.37942 52.5121945,37.357177 52.5984716,38.9330405 C52.7053203,40.8842559 52.546736,42.8423795 52.6852094,44.7949765 C52.6970303,44.9623113 52.6489791,45.0510448 52.4736614,45.0507377 C52.1285527,45.0501237 51.7834439,45.0459787 51.4384887,45.0527335 C51.2511966,45.0564179 51.2243309,44.9478806 51.2146593,44.7971258 C51.1999215,44.5726823 51.267623,44.3391812 51.1058149,44.0379787" id="Fill-23" fill="#687281"></path>
            <path d="M104.578818,54.7844009 C104.609368,54.5200426 104.536907,54.1439232 104.438963,53.773177 C104.093547,52.4638209 103.040873,51.5491599 101.857402,51.5226013 C100.689129,51.4965032 99.6565663,52.3255011 99.2327028,53.633629 C98.8641058,54.7705842 98.9784768,55.8670107 99.5730525,56.8952751 C100.52072,58.5342345 102.814741,58.6459957 103.90518,57.1180299 C104.375867,56.4583625 104.579278,55.7136461 104.578818,54.7844009 M106.284251,54.8485714 C106.284711,57.5365203 104.38646,59.4918806 101.789087,59.478678 C99.2267156,59.4657825 97.320174,57.4973731 97.3197134,54.8639232 C97.3190994,52.1323753 99.1467326,50.2485544 101.803671,50.2422601 C104.466903,50.2358124 106.28379,52.1036674 106.284251,54.8485714" id="Fill-25" fill="#687281"></path>
            <path d="M57.0166158,37.5203667 C58.0915497,36.1047761 59.453409,35.7823881 61.0067053,36.1654158 C62.3416989,36.4945586 63.1237203,37.5369467 63.1862021,39.1861919 C63.2558994,41.025032 63.2056989,42.8684776 63.2215113,44.7096205 C63.2241211,44.9999232 63.1086755,45.0852793 62.8487693,45.052887 C62.8298866,45.0505842 62.8105433,45.0524264 62.7913535,45.0527335 C61.6112597,45.0880426 61.6283002,45.0878891 61.6071147,43.9110192 C61.5791744,42.3594115 61.7162661,40.8042729 61.516232,39.2566567 C61.3679335,38.1100299 60.8697672,37.49258 59.9990124,37.3468913 C59.0149612,37.1823198 58.0365902,37.6749595 57.5419548,38.5756503 C57.1623045,39.2669424 57.0393365,40.0181066 57.0327352,40.7910704 C57.0219889,42.0569808 57.0152341,43.3233518 57.0387224,44.5888017 C57.0457842,44.9735181 56.9228162,45.0644009 56.5539122,45.0619446 C55.4034473,45.0545757 55.4032938,45.0705416 55.4032938,43.9418763 C55.4032938,41.56342 55.413119,39.1846567 55.3943898,36.8062004 C55.3910124,36.3786525 55.4691531,36.2050235 55.9487437,36.222064 C56.9392426,36.2578337 56.9403173,36.2282047 57.0166158,37.5203667" id="Fill-27" fill="#687281"></path>
            <path d="M89.680974,51.9677117 C88.9166072,51.7352853 88.2059719,51.4244111 87.4125902,51.6193791 C86.9365305,51.7365134 86.5333919,51.9350124 86.4297672,52.456974 C86.3272171,52.9729484 86.5954132,53.3377075 86.9994729,53.6191062 C87.5375539,53.9936904 88.1691275,54.1840529 88.7388333,54.4964623 C89.9103301,55.1387821 90.3641296,55.9393791 90.2113791,57.0932213 C90.0420486,58.374023 89.2360785,59.2160699 87.889571,59.4274644 C86.9940998,59.568087 86.093409,59.521571 85.2206584,59.2315753 C84.8138354,59.0963258 84.5219974,57.9919164 84.8150635,57.6862618 C84.9470891,57.5487096 85.0617672,57.7014601 85.1712256,57.7461339 C85.9042746,58.0453407 86.6396264,58.310313 87.4511232,58.090168 C87.9881296,57.9444793 88.3961808,57.6679932 88.4806158,57.0705006 C88.5595241,56.510006 88.2309953,56.163362 87.8036009,55.9102107 C87.3109612,55.6182192 86.788539,55.3776563 86.2851531,55.1034729 C84.8752426,54.3355753 84.4691872,53.579345 84.7416819,52.2503386 C84.9731872,51.1221339 85.9718226,50.3557714 87.3694516,50.2400188 C88.0648887,50.1824495 88.7419036,50.2917544 89.4166158,50.4549441 C89.7339377,50.5317032 89.8736392,50.6554388 89.7919676,51.0049996 C89.7227309,51.2997544 89.7192,51.6100145 89.680974,51.9677117" id="Fill-29" fill="#1466A9"></path>
            <path d="M69.8984136,52.7077151 C69.8985672,50.6958601 69.9085458,48.6835446 69.8895096,46.6718431 C69.8859787,46.2924998 69.9943625,46.1962439 70.3667974,46.1980861 C71.6265672,46.2040733 71.6267207,46.1887215 71.6267207,47.4320648 C71.6267207,51.2261117 71.6185842,55.0201586 71.637467,58.814052 C71.6396162,59.2478942 71.5283156,59.355971 71.1007676,59.3472205 C69.8988742,59.3226576 69.8984136,59.3438431 69.8984136,58.1688154 L69.8984136,52.7077151 Z" id="Fill-31" fill="#1466A9"></path>
            <path d="M110.340998,51.7005441 C111.027531,50.6682883 111.872802,50.1444844 113.049518,50.2467275 C113.489194,50.2849535 113.802217,50.3707701 113.691838,50.9202115 C113.654687,51.1045868 113.677714,51.3032392 113.688,51.4946763 C113.698746,51.6931753 113.641638,51.7424546 113.425945,51.7295591 C111.568375,51.6194866 110.563599,52.4888597 110.440631,54.4330132 C110.351284,55.8473757 110.380299,57.2706422 110.399335,58.6894567 C110.405629,59.1556913 110.300623,59.3194951 109.805373,59.3024546 C108.752546,59.2662243 108.751471,59.2947787 108.751471,58.2407232 C108.751471,55.8421561 108.76145,53.4435889 108.742414,51.0450217 C108.738883,50.6142499 108.819787,50.4407744 109.299531,50.4595036 C110.228316,50.4958874 110.229083,50.4654908 110.276981,51.424058 C110.279744,51.4777893 110.300776,51.5305996 110.340998,51.7005441" id="Fill-33" fill="#687281"></path>
            <path d="M50.4259753,67.5383949 C50.4516128,67.2586849 50.3707087,66.9465825 50.2297791,66.6499855 C50.008406,66.184058 49.6703591,65.9008171 49.1203036,65.8946763 C48.5828367,65.8886891 48.2610627,66.1846721 48.0527386,66.6192819 C47.7271267,67.2979855 47.7197578,67.9862072 48.1347173,68.6363565 C48.547681,69.2834354 49.3370712,69.3824546 49.910922,68.8721603 C50.2927215,68.5325783 50.4447045,68.0948981 50.4259753,67.5383949 M50.5311352,65.8670431 C50.4158431,65.2916571 50.7016938,65.3010217 51.0142567,65.3086977 C51.423536,65.3183693 51.2729348,65.6215676 51.274777,65.8100878 C51.2870584,67.0560409 51.2870584,68.3021475 51.2796896,69.5481006 C51.2701714,71.1408512 50.5457194,71.8708299 48.9612588,71.885107 C48.4993228,71.889252 48.0502823,71.7893117 47.6050797,71.6668043 C47.386777,71.6066252 47.3001928,71.5134397 47.3046448,71.2679642 C47.3113996,70.8919983 47.3791011,70.7235889 47.7863846,70.9369791 C47.9851906,71.0412179 48.2199198,71.0863522 48.4435957,71.1317936 C49.7575574,71.3987616 50.5065723,70.7191369 50.3898985,69.3245783 C49.9557493,69.5815676 49.5455488,69.8462328 49.0311096,69.8767829 C48.183536,69.9275974 47.4834934,69.5270687 47.1460606,68.7491923 C46.8835446,68.1440239 46.8781714,67.5104546 47.0164913,66.8870175 C47.4246959,65.0449535 49.3685424,64.7222584 50.5311352,65.8670431" id="Fill-35" fill="#1466A9"></path>
            <path d="M71.7686789,67.6106712 C71.7333697,67.2927352 71.7299923,67.024539 71.6225296,66.7729228 C71.4049945,66.2641638 71.083681,65.9084623 70.4782055,65.8967949 C69.864133,65.8851275 69.5329945,66.2417501 69.3309646,66.7548077 C69.09731,67.3486158 69.0900947,67.9488716 69.4032716,68.5211872 C69.8814806,69.3950124 70.9553399,69.4243343 71.49818,68.5895028 C71.7042013,68.2727949 71.7603889,67.9218525 71.7686789,67.6106712 M71.7365936,69.265136 C71.2170883,69.6994388 70.6988111,69.9163599 70.1013186,69.8747565 C68.7044571,69.777733 67.9271949,68.3847096 68.3783846,66.7956435 C68.843391,65.1588333 70.4666917,64.6594388 71.7435019,65.7641552 C71.9777706,65.7038226 71.6920733,65.3168034 72.0310414,65.3117373 C72.3657109,65.3068247 72.654939,65.2507906 72.6378985,65.7808887 C72.5976768,67.0268418 72.6288409,68.2747906 72.6239284,69.5219719 C72.6176341,71.2026883 71.7143335,72.0273876 70.0337706,71.8741765 C69.6926533,71.8431659 69.3592119,71.7330934 69.0184017,71.6871915 C68.6138814,71.632539 68.6003719,71.3933578 68.6553313,71.0675923 C68.6986235,70.8102959 68.8031693,70.8099889 69.0065808,70.8924281 C69.2359369,70.9851531 69.4751181,71.0616051 69.7166021,71.1148759 C71.075391,71.4153109 71.8144273,70.7760614 71.7365936,69.265136" id="Fill-37" fill="#1466A9"></path>
            <path d="M77.7022158,65.8368154 C78.7656358,64.9172418 79.6285612,64.9749646 80.4812009,65.9537962 C80.8760495,65.4765083 81.3498064,65.1607215 82.0048682,65.1937279 C82.7603309,65.2318004 83.2423778,65.588116 83.3868384,66.3248495 C83.6028384,67.4251139 83.451009,68.5418047 83.4823267,69.6508196 C83.4924588,70.0095915 83.1952478,69.8683548 83.0147104,69.8883122 C82.7962542,69.912261 82.5936102,69.9104188 82.5995974,69.5828111 C82.613107,68.8546746 82.6051241,68.1260776 82.6026678,67.3976341 C82.6019002,67.1870072 82.6052776,66.9746917 82.5804077,66.7665211 C82.5332776,66.3689092 82.4195207,65.9944785 81.9563565,65.9109646 C81.4924247,65.8274507 81.1298149,66.0116725 80.8883309,66.4161928 C80.7079471,66.7180094 80.6175249,67.0485339 80.6144546,67.400858 C80.6112307,67.765003 80.6090814,68.1293015 80.6090814,68.4934465 C80.6083139,69.887391 80.5938832,69.9586235 80.2041006,69.8778729 C79.2690217,69.6842866 79.9027446,68.9355787 79.7905228,68.4581373 C79.656962,67.8911949 79.821994,67.2757407 79.7111539,66.6860776 C79.6403821,66.3102652 79.5121945,65.9705296 79.0728256,65.9066661 C78.6339173,65.8428026 78.2805186,66.0038431 78.0445612,66.3836469 C77.827026,66.7339753 77.7402883,67.1234507 77.7410559,67.5344188 C77.7421305,68.1669134 77.7155719,68.8009433 77.7504205,69.4315957 C77.7728341,69.8356554 77.6102584,69.9216256 77.2537893,69.8992119 C77.0213629,69.8846277 76.9059173,69.8371906 76.9077595,69.5752887 C76.9168171,68.2525765 76.9155889,66.9295574 76.9086806,65.6069987 C76.907606,65.3857791 76.9832904,65.3194593 77.2052776,65.3039539 C77.5522286,65.2800051 77.7651582,65.3612162 77.7022158,65.8368154" id="Fill-40" fill="#1466A9"></path>
            <path d="M110.899758,65.8072785 C112.099962,64.9213254 112.844525,64.9678414 113.687493,65.9545023 C114.092167,65.4738371 114.579587,65.1566687 115.242171,65.1939736 C116.07731,65.2411036 116.634734,65.7701271 116.65638,66.624916 C116.680483,67.582562 116.647937,68.5417433 116.671118,69.4996964 C116.679715,69.8586217 116.519135,69.8974618 116.224073,69.9005322 C115.925941,69.9037561 115.822009,69.8124128 115.827997,69.5076793 C115.844884,68.6648648 115.852099,67.8206687 115.827383,66.9781612 C115.803434,66.1609842 115.389395,65.760916 114.756747,65.917965 C114.225421,66.0496836 113.995911,66.4660247 113.893975,66.9614277 C113.725873,67.777223 113.828423,68.6046857 113.817523,69.4266217 C113.813225,69.7456324 113.778376,69.9086687 113.389208,69.90698 C113.006333,69.9052913 112.952142,69.754997 112.960125,69.429078 C112.979314,68.6436793 112.974555,67.8573595 112.963502,67.0718072 C112.952756,66.3154235 112.704056,65.938997 112.219707,65.9006175 C111.639408,65.8548691 111.167493,66.2346729 111.038385,66.9222806 C110.889165,67.717965 110.988798,68.5280802 110.976056,69.3317475 C110.97099,69.6553638 111.009677,69.9080546 110.523945,69.9105109 C110.02363,69.9131207 110.084577,69.6375557 110.085651,69.327449 C110.090103,68.1774448 110.076747,67.0271335 110.09824,65.8775898 C110.101924,65.6863062 109.889762,65.3304512 110.339417,65.3157134 C110.648602,65.3054277 111.055732,65.1784682 110.899758,65.8072785" id="Fill-42" fill="#1466A9"></path>
            <path d="M93.4285203,67.523565 C93.4068742,67.252145 93.3718721,66.9477186 93.2312495,66.6687761 C92.9662772,66.1434371 92.5689723,65.8442303 91.9479915,65.8987292 C91.3580213,65.9506183 91.0648017,66.3331855 90.927403,66.841484 C90.7361194,67.5501237 90.7603753,68.2527761 91.2388913,68.8600938 C91.6977569,69.442081 92.4943625,69.4474542 92.9853134,68.891258 C93.3213646,68.5109936 93.4159318,68.04829 93.4285203,67.523565 M93.4280597,65.7958721 C93.4280597,64.9895949 93.4458678,64.2608443 93.4203838,63.533629 C93.4082559,63.1823795 93.5553262,63.1311045 93.8591386,63.1252708 C94.1872068,63.1189765 94.2825416,63.22429 94.2805458,63.5497484 C94.2674968,65.5261407 94.2750192,67.5026866 94.2722559,69.4790789 C94.2721023,69.6590021 94.3316674,69.9146098 94.0244776,69.8819104 C93.8327335,69.8614925 93.5207846,70.0602985 93.4730405,69.6771173 C93.4366567,69.3838977 93.3437783,69.4436162 93.1500384,69.5610576 C91.6517015,70.4689638 90.3308316,69.8860554 89.978968,68.1663454 C89.8653646,67.6113774 89.893919,67.0561023 90.0735352,66.5190959 C90.5391557,65.1283753 92.0425586,64.7702175 93.4280597,65.7958721" id="Fill-44" fill="#1466A9"></path>
            <path d="M121.729233,67.5743795 C121.713881,67.38371 121.718487,67.188742 121.679647,67.0028316 C121.534112,66.3106183 121.127289,65.9234456 120.543459,65.9001109 C119.913421,65.8750874 119.451331,66.2226525 119.232568,66.8840085 C119.083502,67.3345842 119.090257,67.7883838 119.215681,68.2400341 C119.388235,68.8607079 119.880568,69.2913262 120.426018,69.3118977 C120.937694,69.3313945 121.383664,68.9483667 121.614555,68.3101919 C121.701446,68.069629 121.72125,67.8256887 121.729233,67.5743795 M119.10699,69.3475139 C119.10699,70.1223198 119.086879,70.7535864 119.114973,71.3827036 C119.130939,71.7388657 118.973276,71.7755565 118.676832,71.7826183 C118.356133,71.7904478 118.253276,71.7024819 118.256039,71.3699616 C118.271545,69.5102431 118.260184,67.6505245 118.268167,65.7906525 C118.269088,65.5972196 118.136142,65.2884947 118.54496,65.3116759 C118.836645,65.3279488 119.2427,65.1876333 119.034376,65.8594286 C119.513813,65.5370405 119.875655,65.2599403 120.342965,65.2029851 C121.610871,65.0486994 122.524918,65.8621919 122.636218,67.2670362 C122.674598,67.7498507 122.60444,68.2237612 122.437259,68.6792495 C121.951988,70.0010405 120.521813,70.4169211 119.397293,69.5659701 C119.341412,69.5235991 119.285225,69.4816887 119.10699,69.3475139" id="Fill-46" fill="#1466A9"></path>
            <path d="M128.121221,67.1541544 C128.407993,67.1541544 128.695379,67.1415659 128.981383,67.1573783 C129.285656,67.1742652 129.343379,67.049148 129.261247,66.7792631 C129.123388,66.3260776 128.880215,65.9812759 128.381742,65.9086618 C127.839516,65.8297535 127.402603,65.9996981 127.132258,66.5056938 C126.843643,67.0457706 126.901673,67.1518516 127.490415,67.1541544 C127.700735,67.154922 127.911055,67.1541544 128.121221,67.1541544 M129.798867,68.9088665 C129.915081,69.7125339 129.876701,69.7720989 129.176965,69.9203974 C127.644855,70.2447812 126.47827,69.6575744 126.137153,68.3899753 C125.755661,66.9722354 126.318304,65.62189 127.493793,65.3068708 C129.39404,64.7979582 130.156872,66.0187343 130.203081,67.5153825 C130.212445,67.8270243 129.99491,67.7775915 129.809614,67.778052 C129.003797,67.7802013 128.19752,67.7961672 127.392471,67.7723719 C126.95433,67.7596299 126.908275,67.9417023 127.028633,68.2946405 C127.254919,68.9587599 127.941605,69.3709561 128.661452,69.2825296 C129.063516,69.2332503 129.425358,69.0649945 129.798867,68.9088665" id="Fill-48" fill="#1466A9"></path>
            <path d="M87.7861305,68.0383881 C87.8733288,67.8104136 87.7261049,67.6952751 87.4324247,67.6793092 C86.9879898,67.6550533 86.5547616,67.7051002 86.1460964,67.8822601 C85.8189493,68.0242644 85.6298149,68.2705075 85.6790942,68.6504648 C85.7253032,69.0058593 85.9695505,69.1679744 86.2819599,69.2580896 C87.0252947,69.4730149 87.7305569,68.9375437 87.7861305,68.0383881 M87.8848426,69.2912495 C87.2683139,69.9702601 86.6175505,70.03658 85.9279471,69.9386354 C85.2911539,69.8482132 84.8628384,69.4360171 84.762591,68.8395991 C84.6605015,68.2319744 84.9154951,67.6978849 85.4614055,67.3893134 C86.0522968,67.055565 86.6995292,66.9924691 87.354591,67.0571002 C87.7692435,67.0980896 87.8014823,66.8992836 87.7253373,66.5948571 C87.6207915,66.1760597 87.3463011,65.9420981 86.9143011,65.9043326 C86.3659343,65.8562814 85.8490388,65.9486994 85.3926294,66.2962644 C85.1230516,65.7176546 85.3983096,65.4767846 85.8927915,65.3280256 C86.3432136,65.1923156 86.7980878,65.1579275 87.2566465,65.2184136 C88.0021305,65.3166652 88.4496358,65.733467 88.5630857,66.4611429 C88.7288853,67.5264051 88.5733714,68.6041023 88.6521262,69.6741237 C88.6736188,69.9684179 88.4376614,69.8646397 88.2876742,69.89258 C87.9149322,69.9621237 87.8053203,69.7742175 87.8848426,69.2912495" id="Fill-51" fill="#1466A9"></path>
            <path d="M97.6860998,67.1541544 C97.9334175,67.1541544 98.183038,67.1318942 98.4272853,67.159067 C98.8341083,67.2043548 98.8884537,67.0032461 98.7805305,66.689762 C98.6184154,66.219536 98.3164452,65.9230925 97.785119,65.8968409 C97.1854772,65.8670584 96.8265518,66.164116 96.6007267,66.6882269 C96.4676264,66.9966448 96.4527352,67.1954507 96.8878055,67.1582994 C97.1520102,67.1357322 97.4200529,67.1541544 97.6860998,67.1541544 M99.3580657,68.9208409 C99.4210081,69.7701032 99.3757203,69.832278 98.5823386,69.9359028 C98.1438908,69.9930115 97.6986883,70.0045254 97.2657672,69.9231608 C96.0172043,69.6887386 95.3093322,68.3463761 95.6507565,66.8957834 C95.9568716,65.5959454 97.0780145,64.9166277 98.3440785,65.2637322 C99.24262,65.5099753 99.9253151,66.6609006 99.7403258,67.5717237 C99.6844452,67.8475957 99.5031403,67.7742141 99.3514644,67.7755957 C98.5665262,67.7829646 97.7817416,67.7765168 96.9971104,67.7798942 C96.4656307,67.7823505 96.3990038,67.8895062 96.6091701,68.3827599 C96.9180486,69.108133 97.6492554,69.4371224 98.5200102,69.2208154 C98.7949612,69.1524998 99.0567096,69.0304529 99.3580657,68.9208409" id="Fill-53" fill="#1466A9"></path>
            <path d="M63.8435974,65.8501561 C64.1687488,65.5423522 64.4991198,65.3297296 64.9008768,65.2351625 C66.0739087,64.9588299 66.9879557,65.6327744 67.0258746,66.8386593 C67.0533544,67.7203139 67.0171241,68.6035036 67.0389237,69.4853117 C67.0475207,69.8258149 66.919026,69.8959727 66.6064631,69.9027275 C66.2616614,69.9099429 66.1882797,69.7753075 66.1962627,69.4636657 C66.2146849,68.7352222 66.2139173,68.0058576 66.1985655,67.2774141 C66.1799898,66.3842456 65.8790942,65.9430345 65.2943437,65.90051 C64.5589919,65.8470857 64.0602115,66.2919812 63.9070004,67.1338746 C63.76822,67.8957851 63.8431369,68.6647574 63.8406806,69.4298917 C63.8397595,69.7593416 63.7814226,69.9031881 63.4033075,69.9068725 C63.0064631,69.9104034 62.980365,69.733397 62.9838959,69.4205271 C62.9970985,68.2315292 62.9832819,67.0422243 62.9944887,65.8532264 C62.9964844,65.6275548 62.84051,65.3020964 63.3237851,65.2996401 C63.7212435,65.2974908 63.9023949,65.4017296 63.8435974,65.8501561" id="Fill-55" fill="#1466A9"></path>
            <path d="M55.0242576,65.3845049 C55.7210763,65.1465518 56.0078482,65.3987821 56.1765646,66.0145433 C56.4429186,66.9858525 56.8007693,67.9321382 57.1679846,69.0330166 C57.5691275,67.8447864 57.9166925,66.8011701 58.2763855,65.7613919 C58.3448546,65.563507 58.3468503,65.3187991 58.6842832,65.3023727 C59.2401723,65.2753535 59.2826968,65.3012981 59.0966328,65.8241808 C58.6545006,67.0656819 58.2014687,68.303345 57.7737672,69.5496051 C57.6828844,69.8141168 57.5540827,69.9355497 57.2834303,69.8908759 C57.0244452,69.8483514 56.6834814,70.039942 56.5428588,69.6463215 C56.0360955,68.2281211 55.531635,66.8093066 55.0242576,65.3845049" id="Fill-57" fill="#1466A9"></path>
            <path d="M103.44438,69.0350584 C103.900329,69.1890371 104.302547,69.3852333 104.76218,69.2504443 C105.019937,69.1749134 105.217515,69.0445765 105.272321,68.7664017 C105.328969,68.480551 105.186351,68.2828196 104.954692,68.1483377 C104.65702,67.9753228 104.349984,67.8188878 104.047246,67.655084 C103.527127,67.3732247 103.227152,66.9720819 103.339528,66.3477237 C103.453131,65.7159966 103.874231,65.3068708 104.54311,65.215681 C104.787817,65.1822141 105.042351,65.1880478 105.289515,65.2106149 C106.023792,65.2780094 106.023024,65.2847642 105.888542,66.0588026 C105.632014,66.0062994 105.377634,65.931229 105.118342,65.9065126 C104.764943,65.8725851 104.380227,65.8910072 104.255877,66.2976768 C104.128457,66.7150925 104.453762,66.9166618 104.772159,67.0804657 C105.010419,67.2029731 105.261881,67.3012247 105.493847,67.4340179 C106.085046,67.7728324 106.28815,68.2166533 106.175928,68.8786235 C106.085967,69.4091821 105.624031,69.8562269 105.027152,69.9337535 C104.706913,69.9752034 104.375007,69.9701373 104.052312,69.9411224 C103.326018,69.8761842 103.300073,69.8262908 103.44438,69.0350584" id="Fill-59" fill="#1466A9"></path>
            <path d="M124.828073,66.5502755 C124.828073,67.5452264 124.813182,68.540945 124.83621,69.5354354 C124.844039,69.8805441 124.715698,69.9632904 124.406359,69.934429 C124.151365,69.9104802 123.890385,70.0091923 123.895758,69.5576955 C123.919707,67.5484503 123.919553,65.538591 123.895144,63.5294994 C123.890078,63.1062499 124.101626,63.1458576 124.384099,63.1269748 C124.728287,63.1042542 124.847417,63.1974397 124.837438,63.564962 C124.810112,64.5592989 124.828073,65.5550175 124.828073,66.5502755" id="Fill-61" fill="#1466A9"></path>
            <path d="M93.6727369,57.2766755 C94.6431249,57.2766755 94.6431249,57.2766755 94.6431249,58.2651787 C94.6431249,59.3215369 94.6431249,59.3215369 93.5688051,59.3215369 C92.5982635,59.3215369 92.5982635,59.3215369 92.5982635,58.3330337 C92.5982635,57.2766755 92.5982635,57.2766755 93.6727369,57.2766755" id="Fill-63" fill="#687281"></path>
            <path d="M52.8938098,67.5671795 C52.8938098,66.9368341 52.9136136,66.3054141 52.8865945,65.6762968 C52.8697075,65.2831369 53.0984495,65.3067787 53.3598908,65.3090814 C53.6009143,65.3109237 53.793426,65.2851326 53.7868247,65.6528085 C53.7630294,66.9515719 53.7670209,68.2511028 53.7843684,69.5500196 C53.788974,69.9038789 53.5973834,69.8928256 53.3508333,69.896203 C53.0771104,69.9000409 52.8709356,69.8954354 52.8864409,69.5156316 C52.9129996,68.8673245 52.8938098,68.2168682 52.8938098,67.5671795" id="Fill-65" fill="#1466A9"></path>
            <path d="M108.397581,67.6055591 C108.397581,68.2386678 108.378545,68.8726977 108.40495,69.5050388 C108.420148,69.8727147 108.238076,69.8966635 107.949922,69.8997339 C107.662843,69.9028043 107.543253,69.8344887 107.547244,69.5170132 C107.563671,68.2314525 107.56843,66.9452776 107.544942,65.6601774 C107.538494,65.300945 107.716421,65.3066252 107.966809,65.3081603 C108.209368,65.309849 108.417539,65.2857467 108.404336,65.6483565 C108.380387,66.2998874 108.397581,66.9529535 108.397581,67.6055591" id="Fill-67" fill="#1466A9"></path>
            <path d="M61.273965,67.6166584 C61.273965,68.2479249 61.2601484,68.8798055 61.2797987,69.510458 C61.2894704,69.8176478 61.1772486,69.9028503 60.8824938,69.9005475 C60.5866644,69.8982448 60.4313041,69.8564878 60.4368307,69.4997117 C60.456481,68.2179889 60.4560205,66.9358055 60.4371377,65.6543898 C60.4319181,65.300991 60.6156793,65.3111232 60.8646857,65.3065177 C61.1279693,65.3016051 61.2939224,65.326168 61.2810269,65.6654431 C61.256464,66.3149783 61.273965,66.9662021 61.273965,67.6166584" id="Fill-69" fill="#1466A9"></path>
            <path d="M60.8297603,64.2761348 C60.3377348,64.3941902 60.4000631,64.0679642 60.3685919,63.7506422 C60.3239181,63.2979173 60.5902721,63.3452009 60.8885578,63.3198704 C61.2870908,63.2862499 61.3435855,63.4615676 61.3521825,63.8094397 C61.3623147,64.219333 61.2261441,64.3705484 60.8297603,64.2761348" id="Fill-71" fill="#1466A9"></path>
            <path d="M107.973764,64.2725424 C107.509832,64.3890627 107.538079,64.1013697 107.513977,63.7889603 C107.482506,63.379067 107.674557,63.3448324 108.015367,63.3214977 C108.481755,63.2894124 108.465175,63.5296682 108.488664,63.8698644 C108.520288,64.3258132 108.278804,64.3285765 107.973764,64.2725424" id="Fill-73" fill="#1466A9"></path>
            <path d="M53.2666593,64.2801876 C52.8237595,64.3939446 52.8738064,64.0907463 52.8461731,63.7870874 C52.8087147,63.37658 52.9995377,63.3423454 53.3415761,63.321467 C53.8021305,63.2935267 53.7970644,63.5268742 53.8208597,63.8716759 C53.852945,64.3374499 53.5890473,64.3115053 53.2666593,64.2801876" id="Fill-75" fill="#0070AE"></path>
        </g>
    </g>
</svg>